Coordinates
version=1
nRows=26
nColumns=24
inDegrees=yes

Units are S.I. units (second, meters, Newtons, ...)
Angles are in degrees.

endheader
time	pelvis_tilt	pelvis_list	pelvis_rotation	pelvis_tx	pelvis_ty	pelvis_tz	hip_flexion_r	hip_adduction_r	hip_rotation_r	knee_angle_r	ankle_angle_r	subtalar_angle_r	mtp_angle_r	hip_flexion_l	hip_adduction_l	hip_rotation_l	knee_angle_l	ankle_angle_l	subtalar_angle_l	mtp_angle_l	lumbar_extension	lumbar_bending	lumbar_rotation
      4.01500000	     -8.95301366	     -9.26222595	      1.23159031	     -0.90450510	     -0.01956463	      0.62064996	     15.00594305	     13.70494462	     -4.69768286	    -12.50772353	      0.09701132	     -5.84140644	      4.55461834	     28.64471051	    -16.93315418	    -10.74962937	    -70.95850339	     -6.34019711	      5.86813428	     13.05733370	      7.10429251	     10.70562452	     -1.99349069
      4.02000000	     -8.94375939	     -8.98228118	      0.76959723	     -0.89830867	     -0.01862033	      0.62125548	     14.15267822	     13.58712252	     -4.08077433	    -11.90095377	      0.20703233	     -5.67976882	      4.48288638	     29.31540961	    -16.78809128	    -11.19459854	    -70.62891569	     -6.10037744	      6.04617278	     13.07918232	      7.02720632	     10.49069230	     -1.33675296
      4.02500000	     -8.93487946	     -8.70599255	      0.31206707	     -0.89212869	     -0.01775265	      0.62183511	     13.31252273	     13.45227774	     -3.48358090	    -11.30734059	      0.32676546	     -5.49036546	      4.41528860	     29.97267270	    -16.64431271	    -11.64214325	    -70.23070359	     -5.87350055	      6.22432454	     13.09313891	      6.95275141	     10.28165724	     -0.69070366
      4.03000000	     -8.91593304	     -8.43268436	     -0.14952783	     -0.88597342	     -0.01695312	      0.62242095	     12.47351732	     13.30553694	     -2.89093276	    -10.72661224	      0.44799801	     -5.29052014	      4.34069738	     30.60398530	    -16.50802586	    -12.09859793	    -69.76997894	     -5.67157788	      6.38570777	     13.08074530	      6.86472061	     10.07676689	     -0.03397254
      4.03500000	     -8.89412435	     -8.16608201	     -0.60640097	     -0.87982965	     -0.01623442	      0.62299604	     11.64206231	     13.14745334	     -2.31850872	    -10.15448021	      0.57656047	     -5.07132066	      4.26930384	     31.21817653	    -16.37834942	    -12.55455886	    -69.24717234	     -5.48114835	      6.54042061	     13.04112989	      6.77603628	      9.87806830	      0.61034885
      4.04000000	     -8.87494895	     -7.90548431	     -1.05851061	     -0.87369684	     -0.01560026	      0.62355898	     10.82569849	     12.97722995	     -1.77700303	     -9.59270321	      0.71346847	     -4.82293415	      4.21644235	     31.82003540	    -16.25267501	    -13.00760062	    -68.66188800	     -5.29727940	      6.68788781	     12.97387893	      6.69336245	      9.68287567	      1.23711451
      4.04500000	     -8.85232048	     -7.65118072	     -1.50528312	     -0.86758181	     -0.01504720	      0.62411733	     10.01800693	     12.79710735	     -1.25880793	     -9.04095919	      0.85867688	     -4.55086775	      4.18412530	     32.40278923	    -16.13420327	    -13.46307919	    -68.01642947	     -5.12512162	      6.82030118	     12.87008606	      6.60827954	      9.49481321	      1.85454103
      4.05000000	     -8.82830537	     -7.40396318	     -1.94718499	     -0.86148004	     -0.01457705	      0.62466530	      9.22060875	     12.60787565	     -0.76805131	     -8.49831371	      1.01158092	     -4.25742784	      4.17702651	     32.96677891	    -16.02189966	    -13.91729791	    -67.31037638	     -4.95802725	      6.94254807	     12.72846501	      6.52307083	      9.31192322	      2.45903728
      4.05500000	     -8.80679629	     -7.16541601	     -2.37772078	     -0.85538195	     -0.01419632	      0.62519573	      8.43892441	     12.41120854	     -0.30928532	     -7.96719294	      1.17243432	     -3.94540868	      4.20012985	     33.51698897	    -15.91418153	    -14.36578253	    -66.54473707	     -4.79173952	      7.05865943	     12.55520923	      6.44292374	      9.13537968	      3.04274076
      4.06000000	     -8.78137974	     -6.93522444	     -2.80115227	     -0.84929054	     -0.01389550	      0.62570299	      7.66681440	     12.20823074	      0.12141880	     -7.44994610	      1.34089031	     -3.61941827	      4.25302836	     34.04371248	    -15.81164300	    -14.81379223	    -65.72024652	     -4.62664495	      7.16785039	     12.34436776	      6.36014556	      8.96944910	      3.61327853
      4.06500000	     -8.72212301	     -6.73203783	     -3.21169284	     -0.84324351	     -0.01365885	      0.62619251	      6.86934226	     12.01715079	      0.54103984	     -6.93873663	      1.51323277	     -3.28040142	      4.34391941	     34.52369466	    -15.73460245	    -15.25804756	    -64.84990257	     -4.46176464	      7.25900309	     12.03625333	      6.23220545	      8.82725697	      4.17359606
      4.07000000	     -8.69919962	     -6.52399221	     -3.60587600	     -0.83717938	     -0.01353805	      0.62666698	      6.12993896	     11.81020070	      0.91430238	     -6.45108144	      1.69396137	     -2.94619682	      4.46266031	     35.01919495	    -15.63947501	    -15.68464158	    -63.90944405	     -4.28743905	      7.38302020	     11.75733447	      6.15403689	      8.67325739	      4.69724520
      4.07500000	     -8.72068992	     -6.33082273	     -3.93568336	     -0.83110069	     -0.01358764	      0.62706565	      5.44986106	     11.60386391	      1.26356195	     -5.97175712	      1.91730270	     -2.64344995	      4.57133912	     35.56681513	    -15.51827520	    -16.03565834	    -62.91391542	     -4.11862614	      7.54529420	     11.57312192	      6.13798701	      8.52611398	      5.09979004
      4.08000000	     -8.66005638	     -6.13063443	     -4.34149827	     -0.82504589	     -0.01355331	      0.62752680	      4.70968033	     11.38632732	      1.58435406	     -5.54460051	      2.08647478	     -2.31345668	      4.72770063	     35.94726844	    -15.43988143	    -16.51577851	    -61.82921171	     -3.93475856	      7.66339440	     11.27065776	      6.01568461	      8.38282162	      5.66384345
      4.08500000	     -8.61058160	     -5.96063285	     -4.67204028	     -0.81899713	     -0.01365807	      0.62788794	      3.98807387	     11.18263483	      1.89270880	     -5.11462340	      2.28500726	     -2.01833593	      4.89824193	     36.35227926	    -15.34127828	    -16.90711200	    -60.70505674	     -3.75569400	      7.84685368	     10.97281656	      5.91014611	      8.25913651	      6.10879593
      4.09000000	     -8.54946395	     -5.81239961	     -4.98896397	     -0.81297075	     -0.01384470	      0.62822055	      3.26987141	     10.99122865	      2.20478549	     -4.70863152	      2.49774766	     -1.73645123	      5.08804438	     36.72652909	    -15.25396468	    -17.28657322	    -59.52976171	     -3.58259598	      8.06007051	     10.67201813	      5.79096087	      8.15285864	      6.52767452
      4.09500000	     -8.56353564	     -5.67609405	     -5.22168552	     -0.80691256	     -0.01423209	      0.62843251	      2.64961694	     10.80718141	      2.46437153	     -4.32536386	      2.74722048	     -1.52954094	      5.20714591	     37.18649234	    -15.12184196	    -17.57550498	    -58.29696399	     -3.41121554	      8.37463355	     10.51937719	      5.76740849	      8.05820982	      6.82381640
      4.10000000	     -8.44565831	     -5.54110156	     -5.53955268	     -0.80089606	     -0.01448085	      0.62871156	      1.90746110	     10.60979845	      2.77642799	     -3.98277967	      2.95860022	     -1.27267382	      5.40169733	     37.42244690	    -15.03695584	    -17.99343724	    -56.98254713	     -3.23512139	      8.66897789	     10.24931372	      5.57705582	      7.96245209	      7.25698527
      4.10500000	     -8.39218933	     -5.41856217	     -5.77830876	     -0.79484602	     -0.01490945	      0.62888921	      1.25052593	     10.42277297	      3.03687566	     -3.66189423	      3.20001487	     -1.08870637	      5.55454144	     37.72915807	    -14.90938328	    -18.32215416	    -55.61548001	     -3.05937356	      9.09657449	     10.07957232	      5.47109185	      7.87391948	      7.57740492
      4.11000000	     -8.34249126	     -5.30732066	     -5.99429390	     -0.78878522	     -0.01541609	      0.62902473	      0.61498638	     10.24305874	      3.28122182	     -3.37200304	      3.45138227	     -0.92701573	      5.67894437	     38.01526735	    -14.77455737	    -18.63835241	    -54.19033703	     -2.90006989	      9.60781991	      9.97398997	      5.37096416	      7.79386805	      7.87381114
      4.11500000	     -8.28722588	     -5.20192380	     -6.19293510	     -0.78270880	     -0.01598953	      0.62911823	     -0.00815860	     10.06451028	      3.51252236	     -3.11673970	      3.72105247	     -0.78860461	      5.78822034	     38.26317465	    -14.62538971	    -18.94732638	    -52.70330748	     -2.73307560	     10.20607763	      9.91616383	      5.26679437	      7.71656993	      8.13966331
      4.12000000	     -8.22840157	     -5.10471257	     -6.37054446	     -0.77662265	     -0.01661915	      0.62915381	     -0.61642793	      9.88718735	      3.74699788	     -2.89743541	      4.00342674	     -0.65999536	      5.88825443	     38.48141525	    -14.45920745	    -19.23306611	    -51.16086919	     -2.58761337	     10.90018565	      9.89396613	      5.15667035	      7.64562196	      8.38232216
      4.12500000	     -8.25168035	     -5.02873832	     -6.48020728	     -0.77056347	     -0.01743951	      0.62907966	     -1.10078406	      9.74180178	      3.91837156	     -2.73877182	      4.32433600	     -0.59451718	      5.95376880	     38.79702893	    -14.25565679	    -19.41077407	    -49.58237859	     -2.45869280	     11.69554468	      9.91321231	      5.13635945	      7.59909567	      8.50149463
      4.13000000	     -8.11101332	     -4.91597963	     -6.68012521	     -0.76446818	     -0.01807034	      0.62910669	     -1.76676254	      9.52877252	      4.18614689	     -2.57336046	      4.63458080	     -0.43885100	      6.05301277	     38.83805331	    -14.07429206	    -19.76599634	    -47.92589810	     -2.33516459	     12.57710013	      9.93674613	      4.92909247	      7.50531378	      8.81482851
      4.13500000	     -8.05275527	     -4.81881110	     -6.80334238	     -0.75836656	     -0.01887346	      0.62901787	     -2.30986129	      9.34286847	      4.38229654	     -2.46881168	      4.97630759	     -0.35679007	      6.12928514	     38.97605470	    -13.84262795	    -20.00354218	    -46.23837728	     -2.23901118	     13.54669339	      9.96831441	      4.81805819	      7.42608004	      8.98947366
      4.14000000	     -7.99383486	     -4.71759473	     -6.92483319	     -0.75223076	     -0.01973209	      0.62890536	     -2.83511149	      9.15148670	      4.56489564	     -2.40213796	      5.34522435	     -0.28005630	      6.19645521	     39.07976237	    -13.59535420	    -20.24127709	    -44.51429580	     -2.12961358	     14.57503686	      9.99493848	      4.71083981	      7.34214344	      9.16948260
